<?xml version="1.0" encoding="UTF-8"?>
<svg width="563px" height="556px" viewBox="0 0 563 556" version="1.1" xmlns="http://www.w3.org/2000/svg" xmlns:xlink="http://www.w3.org/1999/xlink">
    <defs>
        <linearGradient x1="176.885263%" y1="50.8371013%" x2="-122.894051%" y2="48.968439%" id="gradient-1">
            <stop stop-color="#ED88FF" offset="0%"></stop>
            <stop stop-color="#0049C6" offset="100%"></stop>
        </linearGradient>
        <linearGradient x1="147.681972%" y1="58.4135692%" x2="-83.1016028%" y2="39.6319476%" id="gradient-2">
            <stop stop-color="#ED88FF" offset="0%"></stop>
            <stop stop-color="#0049C6" offset="100%"></stop>
        </linearGradient>
    </defs>
    <g stroke="none" stroke-width="1" fill="none" fill-rule="evenodd">
        <g transform="translate(-68.000000, -47.000000)">

                    <g transform="translate(349.559225, 324.664799) scale(-1, 1) rotate(41.000000) translate(-349.559225, -324.664799) translate(-13.440775, 210.164799)">
                        <g fill="#000000" fill-rule="nonzero">
                            <path d="M696.7294,85.46167 C680.90333,85.4632 668.07204,98.52993 668.07051,114.64638 C668.0676,145.42019 643.47972,170.4592 613.2604,170.46213 C583.04108,170.46505 558.45793,145.43079 558.46083,114.65698 C558.46085,114.53369 558.45298,114.41258 558.45156,114.28929 C558.06847,51.67001 507.9358,0.85233 446.3545,0.85829 C384.7732,0.86425 334.63093,51.69162 334.236,114.31098 C334.23456,114.43428 334.22667,114.55538 334.22666,114.67868 C334.22375,145.45248 309.63586,170.4915 279.41654,170.49442 C249.19722,170.49735 224.61407,145.46309 224.61698,114.68928 C224.61699,114.56599 224.60912,114.44488 224.6077,114.32159 C224.22461,51.7023 174.09194,0.88463 112.510644,0.89059 C50.689352,0.89657 0.388713,52.1201 0.382764,115.07575 C0.38124,131.1922 13.210069,144.25644 29.036131,144.25491 C44.862192,144.25338 57.693491,131.18665 57.695014,115.0702 C57.697922,84.2964 82.285811,59.25738 112.505128,59.25445 C142.724444,59.25153 167.307601,84.28579 167.304692,115.0596 C167.304681,115.18289 167.31255,115.304 167.313971,115.42729 C167.69706,178.04657 217.82973,228.86425 279.41103,228.85829 C340.99232,228.85233 391.1346,178.02496 391.52952,115.4056 C391.53097,115.2823 391.53886,115.1612 391.53887,115.0379 C391.54178,84.2641 416.12967,59.22508 446.34899,59.22216 C476.5683,59.21923 501.15146,84.25349 501.14855,115.0273 C501.14854,115.15059 501.15641,115.2717 501.15783,115.39499 C501.54092,178.01428 551.67359,228.83195 613.25488,228.82599 C675.07617,228.82001 725.37681,177.59648 725.38276,114.64083 C725.38429,98.52438 712.55546,85.46014 696.7294,85.46167" ></path>
                        </g>
                        <g fill="url(#gradient-2)">
                            <path d="M696.7294,85.46167 C680.90333,85.4632 668.07204,98.52993 668.07051,114.64638 C668.0676,145.42019 643.47972,170.4592 613.2604,170.46213 C583.04108,170.46505 558.45793,145.43079 558.46083,114.65698 C558.46085,114.53369 558.45298,114.41258 558.45156,114.28929 C558.06847,51.67001 507.9358,0.85233 446.3545,0.85829 C384.7732,0.86425 334.63093,51.69162 334.236,114.31098 C334.23456,114.43428 334.22667,114.55538 334.22666,114.67868 C334.22375,145.45248 309.63586,170.4915 279.41654,170.49442 C249.19722,170.49735 224.61407,145.46309 224.61698,114.68928 C224.61699,114.56599 224.60912,114.44488 224.6077,114.32159 C224.22461,51.7023 174.09194,0.88463 112.510644,0.89059 C50.689352,0.89657 0.388713,52.1201 0.382764,115.07575 C0.38124,131.1922 13.210069,144.25644 29.036131,144.25491 C44.862192,144.25338 57.693491,131.18665 57.695014,115.0702 C57.697922,84.2964 82.285811,59.25738 112.505128,59.25445 C142.724444,59.25153 167.307601,84.28579 167.304692,115.0596 C167.304681,115.18289 167.31255,115.304 167.313971,115.42729 C167.69706,178.04657 217.82973,228.86425 279.41103,228.85829 C340.99232,228.85233 391.1346,178.02496 391.52952,115.4056 C391.53097,115.2823 391.53886,115.1612 391.53887,115.0379 C391.54178,84.2641 416.12967,59.22508 446.34899,59.22216 C476.5683,59.21923 501.15146,84.25349 501.14855,115.0273 C501.14854,115.15059 501.15641,115.2717 501.15783,115.39499 C501.54092,178.01428 551.67359,228.83195 613.25488,228.82599 C675.07617,228.82001 725.37681,177.59648 725.38276,114.64083 C725.38429,98.52438 712.55546,85.46014 696.7294,85.46167" ></path>
                    </g>
            </g>
        </g>
    </g>
</svg>